<svg width="34" height="40" viewBox="0 0 34 40" fill="none" xmlns="http://www.w3.org/2000/svg">
<path d="M17.6127 18.4978C17.333 18.2576 17.1734 17.8972 17.2534 17.4967C17.3333 17.0162 17.7325 16.6555 18.2119 16.5756H18.3317C18.9307 16.5756 19.4101 17.0561 19.4101 17.657C19.4101 18.0173 19.2505 18.2978 19.0106 18.4981L19.2903 19.8597C19.3302 20.0197 19.2104 20.1401 19.0507 20.1401H17.6133C17.4536 20.1401 17.3336 19.9801 17.3737 19.8597L17.6127 18.4978ZM0.359674 23.1834C0.918787 22.3023 1.63782 21.0609 2.27661 19.7792C2.91567 18.5777 3.43466 16.4553 3.43466 15.0538L3.47449 14.6532C3.99405 6.40349 11.1026 -0.00405639 19.61 0.596651C27.2381 1.1573 33.3485 7.56493 33.5882 15.2539C33.708 19.1785 32.2702 22.8228 29.9139 25.546V32.354C29.9139 32.9948 29.5144 33.5554 28.9155 33.7558L11.5426 39.6827C10.9035 39.9229 10.2247 39.4022 10.2247 38.7215V35.0771H6.0713C4.59367 35.0771 3.43534 33.8756 3.43534 32.4339V25.1854H1.47833C0.44002 25.1854 -0.199054 24.0242 0.360073 23.183L0.359674 23.1834ZM11.9416 21.4215C11.9416 22.1422 12.5405 22.743 13.2595 22.743H23.3637C24.0825 22.743 24.6817 22.1425 24.6817 21.4215V15.3343C24.6817 14.6136 24.0827 14.0127 23.3637 14.0127H23.3239L23.3236 12.531C23.3236 10.4085 22.1254 8.40617 20.1285 7.6053C19.4895 7.36506 18.8106 7.24494 18.1317 7.24494C15.935 7.32511 14.098 8.88694 13.539 10.9692C13.3392 11.6499 13.8984 12.371 14.6174 12.3307C15.0965 12.3307 15.496 11.9704 15.6557 11.5298C15.9752 10.4085 16.8937 9.56746 18.0919 9.44732H18.3716C19.9291 9.44732 21.1671 10.6887 21.1671 12.2505V13.9724H13.4192L13.2593 13.9727C12.5406 13.9727 11.9414 14.5733 11.9414 15.2943L11.9416 21.4215Z" fill="#3F3BEF"/>
</svg>
