<svg width="61" height="42" viewBox="0 0 61 42" fill="none" xmlns="http://www.w3.org/2000/svg">
<path d="M0.0671387 33.5635V36.5841C0.0671387 39.3365 6.57854 41.5517 14.5668 41.5517C22.5551 41.5517 29.0664 39.3365 29.0664 36.5841V33.5635C26.5828 35.9801 20.541 37.1881 14.5668 37.1881C8.59237 37.2556 2.55087 35.9801 0.0671387 33.5635Z" fill="#3F3BEF"/>
<path d="M27.1869 29.402C26.9856 29.5364 26.7168 29.6034 26.5155 29.7378C23.4948 31.0802 18.9973 31.7517 14.5667 31.7517C10.1361 31.7517 5.6387 31.0803 2.61795 29.7378C2.34964 29.6034 2.14783 29.5364 1.94648 29.402C1.74513 29.2676 1.54378 29.2007 1.34244 29.0663C0.805355 28.7306 0.402671 28.3948 0 28.0596V31.1477C0 31.416 0.066959 31.6178 0.134388 31.8861C1.14111 34.3027 7.18293 36.1153 14.4997 36.1153C21.8166 36.1153 27.8582 34.2357 28.8651 31.8861C28.9321 31.6848 28.9995 31.416 28.9995 31.1477V28.0596C28.6638 28.3953 28.1941 28.731 27.6571 29.0663C27.5901 29.2007 27.3887 29.2676 27.1869 29.402Z" fill="#3F3BEF"/>
<path d="M27.1869 23.8972C26.9856 24.0315 26.7168 24.0985 26.5155 24.2329C23.4948 25.5753 18.9973 26.2468 14.5667 26.2468C10.1361 26.2468 5.6387 25.5754 2.61795 24.2329C2.34964 24.0985 2.14783 24.0315 1.94648 23.8972C1.74513 23.7628 1.54378 23.6958 1.34244 23.5614C0.805355 23.2257 0.402671 22.8899 0 22.5547V25.6428C0 25.9111 0.066959 26.1129 0.134388 26.3812C0.470123 27.1866 1.34245 27.8581 2.55099 28.4621C2.75234 28.5965 3.02111 28.6634 3.28942 28.7978C3.55773 28.9322 3.8265 28.9992 4.16222 29.1336C6.78021 30.0733 10.4724 30.6104 14.4997 30.6104C18.5945 30.6104 22.2191 30.0063 24.8371 29.1336C25.1054 28.9992 25.4412 28.9322 25.7099 28.7978C25.9782 28.6634 26.18 28.5965 26.4484 28.4621C27.7239 27.858 28.5292 27.1196 28.865 26.3812C28.9319 26.1799 28.9993 25.9111 28.9993 25.6428V22.5547C28.6636 22.8904 28.194 23.2262 27.6569 23.5614C27.59 23.6953 27.3886 23.7628 27.1868 23.8972H27.1869Z" fill="#3F3BEF"/>
<path d="M27.1869 18.3932C26.9856 18.5276 26.7168 18.5946 26.5155 18.729C23.4948 20.0714 18.9973 20.7429 14.5667 20.7429C10.1361 20.7429 5.6387 20.0715 2.61795 18.729C2.34964 18.5946 2.14783 18.5276 1.94648 18.3932C1.74513 18.2589 1.54378 18.1919 1.34244 18.0575C0.805355 17.7218 0.402671 17.386 0 17.0508V20.1389C0 20.4072 0.066959 20.609 0.134388 20.8773C0.470123 21.6827 1.34245 22.3541 2.55099 22.9582C2.75234 23.0926 3.02111 23.1595 3.28942 23.2939C3.55773 23.4283 3.8265 23.4953 4.16222 23.6296C6.78021 24.5694 10.4724 25.1065 14.4997 25.1065C18.5945 25.1065 22.2191 24.5024 24.8371 23.6296C25.1054 23.4953 25.4412 23.4283 25.7099 23.2939C25.9782 23.1595 26.18 23.0926 26.4484 22.9582C27.7239 22.3541 28.5292 21.6157 28.865 20.8773C28.9319 20.676 28.9993 20.4072 28.9993 20.1389V17.0508C28.6636 17.3865 28.194 17.7223 27.6569 18.0575C27.59 18.1919 27.3886 18.2589 27.1868 18.3932H27.1869Z" fill="#3F3BEF"/>
<path d="M27.1869 12.8883C26.9855 13.0227 26.7168 13.0897 26.5154 13.2241C23.4948 14.5665 18.9972 15.238 14.5667 15.238C10.1361 15.238 5.63866 14.5666 2.6179 13.2241C2.3496 13.0897 2.14778 13.0227 1.94644 12.8883C1.74556 12.754 1.61117 12.6196 1.40982 12.5526C0.872738 12.2169 0.470054 11.8811 0.0673828 11.5459V14.634C0.0673828 14.9023 0.134342 15.1041 0.201771 15.3724C0.537506 16.043 1.40983 16.7814 2.68538 17.3859C2.88673 17.5203 3.1555 17.5873 3.42381 17.7216C3.69212 17.856 3.96089 17.923 4.29662 18.0574C6.9146 18.9971 10.6068 19.5342 14.6341 19.5342C18.7289 19.5342 22.3535 18.9301 24.9715 18.0574C25.2398 17.923 25.5756 17.856 25.8443 17.7216C26.1126 17.5873 26.3144 17.5203 26.5827 17.3859C27.8583 16.7819 28.6636 16.0435 28.9994 15.3051C29.0663 15.1037 29.1337 14.8349 29.1337 14.5666V11.4785C28.798 11.8143 28.3283 12.15 27.7913 12.4852C27.59 12.6196 27.3887 12.754 27.1869 12.8883Z" fill="#3F3BEF"/>
<path d="M14.5668 1.18891e-05C6.57842 1.18891e-05 0.0671387 2.21523 0.0671387 4.96759V8.05571V9.12987C0.0671387 9.39817 0.134098 9.59999 0.201526 9.8683C0.537261 10.6737 1.40959 11.3451 2.61813 11.9491C2.81948 12.0835 3.08825 12.1505 3.35656 12.2849C3.62487 12.4193 3.89364 12.4862 4.22936 12.6206C6.84735 13.5604 10.5395 14.0974 14.5668 14.0974C18.6616 14.0974 22.2863 13.4934 24.9043 12.6206C25.1726 12.4862 25.5083 12.4193 25.7771 12.2849C26.0454 12.1505 26.2472 12.0835 26.5155 11.9491C27.791 11.3451 28.5963 10.6067 28.9321 9.8683C28.9991 9.66695 29.0665 9.39817 29.0665 9.12987V5.03507C29.0665 2.21534 22.555 1.18891e-05 14.5668 1.18891e-05Z" fill="#3F3BEF"/>
<path d="M58.6027 34.9064C58.4014 35.0408 58.1326 35.1078 57.9312 35.2422C54.9106 36.5846 50.48 37.2561 45.9825 37.2561C41.5519 37.2561 37.0545 36.5846 34.0337 35.2422C33.7654 35.1078 33.5636 35.0408 33.3623 34.9064C33.1609 34.772 32.9596 34.7051 32.7582 34.5707C32.2211 34.2349 31.8184 33.8992 31.4158 33.564V36.6521C31.4158 36.9204 31.4827 37.1222 31.5502 37.3905C31.8859 38.1959 32.7582 38.8673 33.9668 39.4714C34.1681 39.6057 34.4369 39.6727 34.7052 39.8071C34.9735 39.9415 35.2423 40.0084 35.578 40.1428C38.196 41.0826 41.8881 41.6196 45.9154 41.6196C50.0102 41.6196 53.6349 41.0156 56.2529 40.1428C56.5212 40.0084 56.8569 39.9415 57.1257 39.8071C57.394 39.6727 57.5958 39.6057 57.8641 39.4714C59.1397 38.8673 59.945 38.1289 60.2807 37.3905C60.3477 37.1892 60.4151 36.9204 60.4151 36.6521V33.5635C60.0794 33.8992 59.6097 34.2349 59.0727 34.5702C58.9383 34.7051 58.8039 34.772 58.6026 34.9064L58.6027 34.9064Z" fill="#3F3BEF"/>
<path d="M58.6027 29.402C58.4014 29.5364 58.1326 29.6034 57.9312 29.7378C54.9106 31.0802 50.48 31.7517 45.9825 31.7517C41.5519 31.7517 37.0545 31.0803 34.0337 29.7378C33.7654 29.6034 33.5636 29.5364 33.3623 29.402C33.1609 29.2676 32.9596 29.2007 32.7582 29.0663C32.2211 28.7306 31.8184 28.3948 31.4158 28.0596V31.1477C31.4158 31.416 31.4827 31.6178 31.5502 31.8861C31.8859 32.6915 32.7582 33.3629 33.9668 33.967C34.1681 34.1013 34.4369 34.1683 34.7052 34.3027C34.9735 34.4371 35.2423 34.504 35.578 34.6384C38.196 35.5782 41.8881 36.1152 45.9154 36.1152C50.0102 36.1152 53.6349 35.5112 56.2529 34.6384C56.5212 34.504 56.8569 34.4371 57.1257 34.3027C57.394 34.1683 57.5958 34.1013 57.8641 33.967C59.1397 33.3629 59.945 32.6245 60.2807 31.8861C60.3477 31.6848 60.4151 31.416 60.4151 31.1477V28.0596C60.0794 28.3953 59.6097 28.731 59.0727 29.0663C58.9383 29.2007 58.8039 29.2676 58.6026 29.402H58.6027Z" fill="#3F3BEF"/>
<path d="M58.6027 23.8972C58.4014 24.0315 58.1326 24.0985 57.9312 24.2329C54.9106 25.5753 50.48 26.2468 45.9825 26.2468C41.5519 26.2468 37.0545 25.5754 34.0337 24.2329C33.7654 24.0985 33.5636 24.0315 33.3623 23.8972C33.1609 23.7628 32.9596 23.6958 32.7582 23.5614C32.2211 23.2257 31.8184 22.8899 31.4158 22.5547V25.6428C31.4158 25.9111 31.4827 26.1129 31.5502 26.3812C31.8859 27.1866 32.7582 27.8581 33.9668 28.4621C34.1681 28.5965 34.4369 28.6634 34.7052 28.7978C34.9735 28.9322 35.2423 28.9992 35.578 29.1336C38.196 30.0733 41.8881 30.6104 45.9154 30.6104C50.0102 30.6104 53.6349 30.0063 56.2529 29.1336C56.5212 28.9992 56.8569 28.9322 57.1257 28.7978C57.394 28.6634 57.5958 28.5965 57.8641 28.4621C59.1397 27.858 59.945 27.1196 60.2807 26.3812C60.3477 26.1799 60.4151 25.9111 60.4151 25.6428V22.5547C60.0794 22.8904 59.6097 23.2262 59.0727 23.5614C58.9383 23.6953 58.8039 23.7628 58.6026 23.8972H58.6027Z" fill="#3F3BEF"/>
<path d="M45.9828 11.0762C37.9944 11.0762 31.4832 13.2914 31.4832 16.0438V19.0644V20.1386C31.4832 20.4069 31.5501 20.6087 31.6175 20.877C31.9533 21.6824 32.8256 22.3538 34.0341 22.9578C34.2355 23.0922 34.5043 23.1592 34.7726 23.2936C35.0409 23.4279 35.3097 23.4949 35.6454 23.6293C38.2634 24.5691 41.9555 25.1061 45.9828 25.1061C50.0776 25.1061 53.7023 24.5021 56.3203 23.6293C56.5886 23.4949 56.9243 23.4279 57.1931 23.2936C57.4614 23.1592 57.6632 23.0922 57.9315 22.9578C59.2071 22.3538 60.0124 21.6154 60.3481 20.877C60.4151 20.6756 60.4825 20.4069 60.4825 20.1386V16.0438C60.4825 13.2914 53.971 11.0762 45.9828 11.0762Z" fill="#3F3BEF"/>
</svg>
