<svg width="68" height="69" viewBox="0 0 68 69" fill="none" xmlns="http://www.w3.org/2000/svg">
<g clip-path="url(#clip0_12_38)">
<path d="M51.4143 3.39576C33.7232 0.157658 5.80454 4.2058 1.6582 31.729" stroke="#3F3BEF" stroke-width="3.07317"/>
<path d="M24.0977 65.9997C42.0443 64.6576 67.9384 53.6936 64.6462 26.0605" stroke="#3F3BEF" stroke-width="3.07317"/>
<path d="M4.97656 45.4883C6.35867 52.2344 15.757 64.5931 42.2936 60.0598" stroke="#3F3BEF" stroke-width="1.53659"/>
<path d="M64.2428 31.0776C64.6964 24.2122 58.8948 9.90001 32.0605 7.57422" stroke="#3F3BEF" stroke-width="1.53659"/>
</g>
<path d="M26.2301 46.1562V42.6108L34.5142 34.9403C35.2188 34.2585 35.8097 33.6449 36.2869 33.0994C36.7718 32.554 37.1392 32.0199 37.3892 31.4972C37.6392 30.9669 37.7642 30.3949 37.7642 29.7812C37.7642 29.0994 37.6089 28.5123 37.2983 28.0199C36.9877 27.5199 36.5634 27.1373 36.0256 26.8722C35.4877 26.5994 34.8778 26.4631 34.196 26.4631C33.4839 26.4631 32.8627 26.607 32.3324 26.8949C31.8021 27.1828 31.393 27.5956 31.1051 28.1335C30.8172 28.6714 30.6733 29.3116 30.6733 30.054H26.0028C26.0028 28.5312 26.3475 27.2093 27.0369 26.0881C27.7263 24.9669 28.6922 24.0994 29.9347 23.4858C31.1771 22.8722 32.6089 22.5653 34.2301 22.5653C35.8968 22.5653 37.3475 22.8608 38.5824 23.4517C39.8248 24.035 40.7907 24.8456 41.4801 25.8835C42.1695 26.9214 42.5142 28.1108 42.5142 29.4517C42.5142 30.3305 42.34 31.1979 41.9915 32.054C41.6506 32.91 41.0407 33.8608 40.1619 34.9062C39.2831 35.9441 38.0445 37.1903 36.446 38.6449L33.0483 41.9744V42.1335H42.821V46.1562H26.2301Z" fill="#3F3BEF"/>
<defs>
<clipPath id="clip0_12_38">
<rect width="68" height="68" fill="white" transform="translate(0 0.15625)"/>
</clipPath>
</defs>
</svg>
