<svg width="68" height="69" viewBox="0 0 68 69" fill="none" xmlns="http://www.w3.org/2000/svg">
<g clip-path="url(#clip0_11_1334)">
<path d="M51.4143 3.39576C33.7232 0.157658 5.80454 4.2058 1.6582 31.729" stroke="#3F3BEF" stroke-width="3.07317"/>
<path d="M24.0977 65.9997C42.0443 64.6576 67.9384 53.6936 64.6462 26.0605" stroke="#3F3BEF" stroke-width="3.07317"/>
<path d="M4.97656 45.4883C6.35867 52.2344 15.757 64.5931 42.2936 60.0598" stroke="#3F3BEF" stroke-width="1.53659"/>
<path d="M64.2428 31.0776C64.6964 24.2122 58.8948 9.90001 32.0605 7.57422" stroke="#3F3BEF" stroke-width="1.53659"/>
</g>
<path d="M35.2386 46.4744C33.5417 46.4744 32.0303 46.1828 30.7045 45.5994C29.3864 45.0085 28.3447 44.1979 27.5795 43.1676C26.822 42.1297 26.4318 40.9328 26.4091 39.5767H31.3636C31.3939 40.1449 31.5795 40.6449 31.9205 41.0767C32.2689 41.5009 32.7311 41.8305 33.3068 42.0653C33.8826 42.3002 34.5303 42.4176 35.25 42.4176C36 42.4176 36.6629 42.285 37.2386 42.0199C37.8144 41.7547 38.2652 41.3873 38.5909 40.9176C38.9167 40.4479 39.0795 39.9062 39.0795 39.2926C39.0795 38.6714 38.9053 38.1222 38.5568 37.6449C38.2159 37.16 37.7235 36.7812 37.0795 36.5085C36.4432 36.2358 35.6856 36.0994 34.8068 36.0994H32.6364V32.4858H34.8068C35.5492 32.4858 36.2045 32.357 36.7727 32.0994C37.3485 31.8419 37.7955 31.4858 38.1136 31.0312C38.4318 30.5691 38.5909 30.0312 38.5909 29.4176C38.5909 28.8343 38.4508 28.3229 38.1705 27.8835C37.8977 27.4366 37.5114 27.0881 37.0114 26.8381C36.5189 26.5881 35.9432 26.4631 35.2841 26.4631C34.6174 26.4631 34.0076 26.5843 33.4545 26.8267C32.9015 27.0616 32.4583 27.3987 32.125 27.8381C31.7917 28.2775 31.6136 28.7926 31.5909 29.3835H26.875C26.8977 28.0426 27.2803 26.8608 28.0227 25.8381C28.7652 24.8153 29.7652 24.0161 31.0227 23.4403C32.2879 22.857 33.7159 22.5653 35.3068 22.5653C36.9129 22.5653 38.3182 22.857 39.5227 23.4403C40.7273 24.0237 41.6629 24.8116 42.3295 25.804C43.0038 26.7888 43.3371 27.8949 43.3295 29.1222C43.3371 30.4252 42.9318 31.5123 42.1136 32.3835C41.303 33.2547 40.2462 33.8078 38.9432 34.0426V34.2244C40.6553 34.4441 41.9583 35.0388 42.8523 36.0085C43.7538 36.9706 44.2008 38.1752 44.1932 39.6222C44.2008 40.9479 43.8182 42.1259 43.0455 43.1562C42.2803 44.1866 41.2235 44.9972 39.875 45.5881C38.5265 46.179 36.9811 46.4744 35.2386 46.4744Z" fill="#3F3BEF"/>
<defs>
<clipPath id="clip0_11_1334">
<rect width="68" height="68" fill="white" transform="translate(0 0.15625)"/>
</clipPath>
</defs>
</svg>
