<svg width="68" height="69" viewBox="0 0 68 69" fill="none" xmlns="http://www.w3.org/2000/svg">
<g clip-path="url(#clip0_11_1359)">
<path d="M51.4143 3.39576C33.7232 0.157658 5.80454 4.2058 1.6582 31.729" stroke="#3F3BEF" stroke-width="3.07317"/>
<path d="M24.0977 65.9997C42.0443 64.6576 67.9384 53.6936 64.6462 26.0605" stroke="#3F3BEF" stroke-width="3.07317"/>
<path d="M4.97656 45.4883C6.35867 52.2344 15.757 64.5931 42.2936 60.0598" stroke="#3F3BEF" stroke-width="1.53659"/>
<path d="M64.2428 31.0776C64.6964 24.2122 58.8948 9.90001 32.0605 7.57422" stroke="#3F3BEF" stroke-width="1.53659"/>
</g>
<path d="M22.2841 42.0653V38.1903L32 22.8835H35.3409V28.2472H33.3636L27.2386 37.9403V38.1222H41.0455V42.0653H22.2841ZM33.4545 46.1562V40.8835L33.5455 39.1676V22.8835H38.1591V46.1562H33.4545Z" fill="#3F3BEF"/>
<defs>
<clipPath id="clip0_11_1359">
<rect width="68" height="68" fill="white" transform="translate(0 0.15625)"/>
</clipPath>
</defs>
</svg>
