<svg width="33" height="40" viewBox="0 0 33 40" fill="none" xmlns="http://www.w3.org/2000/svg">
<path d="M0.0612221 21.7357C0.0647659 21.7152 0.0647659 21.6947 0.0612221 21.6744V7.05991H0.268932C0.935944 7.1329 1.60678 7.16952 2.27787 7.17006C4.92224 7.15585 7.53276 6.57283 9.93289 5.46063C12.3335 4.34841 14.4681 2.73281 16.1928 0.722984L16.3394 0.557617L16.4798 0.722984C18.2301 2.73687 20.3873 4.35471 22.8083 5.46938C25.2294 6.58404 27.8593 7.17006 30.5234 7.18833C31.1945 7.18805 31.8651 7.15143 32.5323 7.07818H32.74V21.7725C32.74 21.8703 33.784 32.071 16.3337 39.7422H16.1811C-1.05005 32.1438 0.00644302 22.1762 0.061573 21.7354L0.0612221 21.7357ZM26.5244 20.0334C26.5244 17.338 25.4564 14.7529 23.5557 12.8465C21.655 10.9405 19.0769 9.8696 16.3885 9.8696C13.7001 9.8696 11.1221 10.9405 9.22122 12.8465C7.32051 14.7526 6.25251 17.3379 6.25251 20.0334C6.25251 22.7289 7.32051 25.3141 9.22122 27.2203C11.1219 29.1265 13.7001 30.1971 16.3885 30.1971C19.0756 30.1941 21.6518 29.1221 23.5522 27.2167C25.4524 25.3115 26.5212 22.7283 26.5245 20.0333L26.5244 20.0334Z" fill="#3F3BEF"/>
<path d="M16.3883 18.5887C15.6463 18.5904 14.934 18.2963 14.4082 17.7709C13.8827 17.2458 13.5867 16.5327 13.5856 15.7887C13.5845 15.0447 13.8786 14.3305 14.4025 13.8038C14.9267 13.2771 15.6381 12.981 16.3801 12.9805C17.1221 12.9799 17.8341 13.2751 18.3588 13.801C18.8838 14.3269 19.1787 15.0406 19.1787 15.7846C19.1787 16.5272 18.8849 17.2396 18.3618 17.7652C17.8387 18.2911 17.1289 18.5871 16.3883 18.5888V18.5887Z" fill="#3F3BEF"/>
<path d="M13.0304 19.5684H19.7469C20.2811 19.57 20.793 19.7843 21.1698 20.1645C21.5465 20.5444 21.7575 21.0591 21.7558 21.5948V24.9257H11.0158V21.5948C11.0158 21.0585 11.2279 20.5438 11.6057 20.1642C11.9832 19.7843 12.4957 19.57 13.0307 19.5684L13.0304 19.5684Z" fill="#3F3BEF"/>
</svg>
