<svg width="51" height="51" viewBox="0 0 51 51" fill="none" xmlns="http://www.w3.org/2000/svg">
<circle cx="25.5" cy="25.5" r="25.5" fill="#F7C31D"/>
<path d="M40.5992 30.6132L37.9414 28.6089C38.0706 27.877 38.1361 27.1316 38.1361 26.3843C38.1361 25.6369 38.0706 24.8915 37.9414 24.1596L40.5992 22.1558C41.0049 21.8501 41.1193 21.2882 40.8653 20.8476L37.9651 15.8106C37.7116 15.3702 37.1692 15.1878 36.7021 15.3875L33.6397 16.6948C32.5008 15.7338 31.1921 14.9753 29.799 14.4682L29.3972 11.1588C29.3357 10.6534 28.908 10.2734 28.4002 10.2734H22.5998C22.092 10.2734 21.6641 10.6534 21.6028 11.1588L21.201 14.4682C19.8079 14.975 18.4992 15.7335 17.3603 16.6948L14.2979 15.3875C13.831 15.1885 13.2889 15.3695 13.0349 15.8106L10.1347 20.8473C9.88113 21.2885 9.9949 21.8499 10.4008 22.1556L13.0586 24.1594C12.9294 24.8913 12.8639 25.6367 12.8639 26.384C12.8639 27.1314 12.9294 27.8768 13.0586 28.6091L10.4008 30.6129C9.99514 30.9186 9.88066 31.4805 10.1347 31.9212L13.0349 36.9581C13.2884 37.3992 13.8308 37.5802 14.2979 37.3812L17.3603 36.074C18.4987 37.035 19.8079 37.7934 21.201 38.3008L21.6028 41.6102C21.6641 42.1156 22.0917 42.4955 22.5998 42.4955H28.4C28.9078 42.4955 29.3356 42.1156 29.3969 41.6102L29.7988 38.3008C31.1919 37.7939 32.5005 37.0355 33.6394 36.0742L36.7019 37.3815C37.1688 37.5804 37.7109 37.3995 37.9649 36.9584L40.8651 31.9214C41.1191 31.4807 41.0046 30.9189 40.5992 30.6132L40.5992 30.6132ZM36.6704 35.1789L33.842 33.972C33.4761 33.8159 33.0525 33.8906 32.7628 34.1636C31.5771 35.2771 30.1332 36.1138 28.5885 36.5836C28.2079 36.6994 27.931 37.0295 27.8827 37.4253L27.5114 40.4815L23.4896 40.4817L23.1187 37.4256C23.0707 37.0297 22.7942 36.6996 22.4129 36.5839C20.8677 36.1138 19.424 35.2771 18.2386 34.1638C17.9482 33.8909 17.5253 33.8159 17.1587 33.9722L14.3303 35.1792L12.3194 31.6869L14.7733 29.8363C15.0907 29.597 15.2376 29.1919 15.1482 28.8039C14.9654 28.0153 14.8731 27.2013 14.8731 26.3841C14.8731 25.5675 14.9658 24.7531 15.1482 23.9643C15.2381 23.5758 15.0912 23.1714 14.7733 22.9317L12.3194 21.0811L14.3303 17.5888L17.1587 18.7957C17.5246 18.9518 17.9482 18.8771 18.2381 18.6041C19.4238 17.4906 20.8678 16.6539 22.4125 16.1841C22.793 16.0683 23.07 15.7382 23.1182 15.3424L23.4896 12.2862L27.5114 12.286L27.8827 15.3421C27.9307 15.738 28.2072 16.0686 28.5885 16.1838C30.1337 16.6532 31.5771 17.4902 32.7628 18.6038C33.0533 18.8768 33.4761 18.9518 33.842 18.7955L36.6704 17.5885L38.6813 21.0808L36.2274 22.9314C35.91 23.1707 35.7631 23.5758 35.8525 23.9641C36.0353 24.7526 36.1276 25.5666 36.1276 26.3838C36.1276 27.2011 36.0349 28.0148 35.8525 28.8036C35.7626 29.1921 35.9095 29.5965 36.2274 29.8363L38.6813 31.6869L36.6704 35.1789ZM25.5008 20.1435C22.0689 20.1435 19.277 22.943 19.277 26.3844C19.277 29.8257 22.0688 32.6253 25.5008 32.6253C28.9328 32.6253 31.7247 29.8258 31.7247 26.3844C31.7247 22.9433 28.9328 20.1435 25.5008 20.1435ZM25.5008 30.6114C23.1765 30.6114 21.2853 28.715 21.2853 26.3843C21.2853 24.0537 23.1765 22.1573 25.5008 22.1573C27.8251 22.1573 29.7163 24.0537 29.7163 26.3843C29.7163 28.715 27.8251 30.6114 25.5008 30.6114Z" fill="white"/>
</svg>
