<svg width="51" height="51" viewBox="0 0 51 51" fill="none" xmlns="http://www.w3.org/2000/svg">
<circle cx="25.5" cy="25.5" r="25.5" fill="#3F3BEF"/>
<path d="M25.7417 13.2616C25.5237 13.1745 25.2618 13.0871 25.0435 13C24.8252 13.0874 24.5636 13.1745 24.3453 13.2619C21.7708 14.1783 18.8907 15.182 15.7054 15.182C14.7889 15.182 13.9162 15.1384 13 15.051V30.1931C13 33.5096 16.3165 36.608 19.0652 38.6148C21.5964 40.4472 24.1708 41.7127 24.9999 42.149C26.8762 41.2325 37 36.1272 37 30.1926V15.0942C36.1273 15.1815 35.2108 15.2251 34.2946 15.2251C31.1962 15.1813 28.2725 14.1777 25.7414 13.2612L25.7417 13.2616ZM22.5126 32.9421L17.8436 28.2731L19.8946 26.222L22.5129 28.8403L30.8909 20.4186L32.942 22.4696L22.5126 32.9421Z" fill="white"/>
</svg>
