<svg width="40" height="40" viewBox="0 0 40 40" fill="none" xmlns="http://www.w3.org/2000/svg">
<path d="M19.8024 9.92969C14.1494 9.92969 9.61035 14.5225 9.61035 20.1497C9.61035 25.8181 14.1906 30.3696 19.8024 30.3696C25.4142 30.3696 29.9944 25.8181 29.9944 20.1497C29.9944 14.4812 25.4553 9.92969 19.8024 9.92969ZM24.7128 18.867L19.4311 24.1219C19.1421 24.4116 18.7296 24.577 18.3583 24.577C17.987 24.577 17.5742 24.4116 17.2855 24.1219L14.6859 21.5151C14.067 20.8945 14.067 19.9427 14.6859 19.3221C15.3047 18.7016 16.254 18.7016 16.8728 19.3221L18.3995 20.853L22.567 16.674C23.1858 16.0535 24.1351 16.0535 24.754 16.674C25.2905 17.2946 25.2904 18.2461 24.7128 18.867Z" fill="#3F3BEF"/>
<path d="M17.9044 3.93032C18.0281 4.05443 18.1107 4.26137 18.0693 4.42675L17.7803 5.58529C17.6565 6.04044 18.1516 6.37152 18.5229 6.12327L19.5133 5.50274C19.6782 5.41991 19.8846 5.41991 20.0498 5.50274L21.0402 6.12327C21.4115 6.37149 21.9069 5.99916 21.7828 5.58529L21.5355 4.42675C21.4944 4.26137 21.5355 4.05443 21.7005 3.93032L22.6082 3.1854C22.9384 2.89563 22.7732 2.31635 22.3193 2.31635L21.1639 2.23352C20.9575 2.23352 20.7926 2.10941 20.7511 1.94374L20.2972 0.868029C20.1323 0.454147 19.5546 0.454147 19.3483 0.868029L18.8943 1.94374C18.8117 2.10912 18.6468 2.23352 18.4816 2.23352L17.3262 2.31635C16.8723 2.35762 16.7074 2.8956 17.0372 3.1854L17.9044 3.93032Z" fill="#B9B9FF"/>
<path d="M8.90891 6.86805L10.0643 7.07499C10.2707 7.11626 10.3944 7.24037 10.4356 7.44731L10.7657 8.56455C10.8895 8.97843 11.4672 9.06098 11.6735 8.64738L12.2512 7.61297C12.3338 7.44759 12.4987 7.36476 12.7051 7.36476L13.8605 7.40603C14.3144 7.40603 14.5619 6.86805 14.2318 6.53698L13.4892 5.66822C13.3654 5.54412 13.3243 5.33717 13.3654 5.17179L13.7367 4.05456C13.9016 3.64068 13.4477 3.2271 13.0353 3.43403L11.9625 3.93046C11.7976 4.01329 11.5912 3.97173 11.426 3.88919L10.5593 3.18554C10.188 2.89576 9.69265 3.18554 9.73413 3.64069L9.89906 4.79923C9.94022 5.00617 9.8579 5.17155 9.69268 5.29566L8.7437 5.95775C8.3724 6.20625 8.49616 6.78552 8.90891 6.86805Z" fill="#B9B9FF"/>
<path d="M3.58572 11.8332C3.70948 11.9986 3.70948 12.2055 3.62687 12.3712L3.1318 13.4469C2.92543 13.8608 3.33818 14.2744 3.75063 14.1503L4.86482 13.778C5.02974 13.6951 5.23612 13.778 5.35989 13.9021L6.22656 14.6883C6.5567 14.9781 7.09324 14.7711 7.09324 14.316L7.05208 13.1574C7.05208 12.9505 7.13468 12.7851 7.29961 12.7023L8.33119 12.123C8.74394 11.9161 8.66134 11.3368 8.24859 11.2127L7.1344 10.8817C6.96948 10.8404 6.80426 10.6747 6.7631 10.5094L6.55673 9.35083C6.47412 8.89568 5.89645 8.77158 5.64894 9.14389L4.98866 10.0955C4.86489 10.2609 4.69968 10.3437 4.49359 10.3024L3.33822 10.137C2.88431 10.0958 2.59563 10.5922 2.88431 10.9645L3.58572 11.8332Z" fill="#B9B9FF"/>
<path d="M3.62715 22.053C3.75092 21.9289 3.9573 21.8461 4.12223 21.8876L5.2776 22.1774C5.73151 22.3015 6.06167 21.8051 5.81411 21.4328L5.19528 20.4397C5.11267 20.2743 5.11267 20.0674 5.19528 19.9017L5.81411 18.9086C6.06164 18.5363 5.69034 18.0395 5.2776 18.164L4.12223 18.4537C3.9573 18.495 3.75092 18.4537 3.62715 18.2884L2.88427 17.3362C2.59529 17.0051 2.0176 17.1708 2.0176 17.626L1.93499 18.7845C1.93499 18.9914 1.81122 19.1568 1.64601 19.1984L0.573234 19.6535C0.160484 19.8189 0.160484 20.3982 0.573234 20.6051L1.64601 21.0603C1.81093 21.1431 1.93499 21.3085 1.93499 21.4742L2.0176 22.6327C2.05875 23.0879 2.59527 23.2532 2.88427 22.9225L3.62715 22.053Z" fill="#B9B9FF"/>
<path d="M8.33086 28.2593L7.29928 27.6801C7.13435 27.5972 7.05174 27.4319 7.05174 27.2249L7.0929 26.0664C7.0929 25.6112 6.55639 25.363 6.22623 25.694L5.35985 26.48C5.23608 26.6041 5.0297 26.6454 4.86478 26.6041L3.7506 26.2318C3.33784 26.0664 2.9254 26.5215 3.13176 26.9351L3.62684 28.0108C3.70944 28.1762 3.66799 28.3832 3.58568 28.5488L2.88395 29.4179C2.59497 29.7902 2.88395 30.2869 3.33786 30.2453L4.49323 30.0799C4.69961 30.0387 4.86453 30.1212 4.9883 30.2869L5.64858 31.2385C5.89611 31.6108 6.47377 31.4867 6.55637 31.0315L6.76274 29.873C6.8039 29.6661 6.92767 29.5419 7.13405 29.5007L8.24823 29.1696C8.66098 29.0452 8.74361 28.466 8.33086 28.2593Z" fill="#B9B9FF"/>
<path d="M13.9018 32.9353L12.7464 32.9766C12.5401 32.9766 12.3751 32.8937 12.2925 32.7284L11.7149 31.694C11.5085 31.2801 10.9308 31.3629 10.8071 31.7768L10.4769 32.894C10.4358 33.0594 10.2706 33.2251 10.1056 33.2663L8.95025 33.4733C8.49634 33.5561 8.37258 34.1354 8.74388 34.3836L9.69286 35.0457C9.85778 35.1698 9.94039 35.3354 9.89923 35.5421L9.7343 36.7006C9.69315 37.1558 10.1882 37.4453 10.5595 37.1558L11.5085 36.4524C11.6734 36.3283 11.8798 36.3283 12.045 36.4111L13.1178 36.9076C13.5305 37.1145 13.9429 36.7006 13.8192 36.287L13.4479 35.1698C13.3653 35.0044 13.4479 34.7975 13.5717 34.6734L14.3557 33.8043C14.6033 33.432 14.3554 32.8941 13.9018 32.9353Z" fill="#B9B9FF"/>
<path d="M21.7003 36.3697C21.5765 36.2456 21.4939 36.0386 21.5354 35.8733L21.8243 34.7147C21.9481 34.2596 21.453 33.9285 21.0818 34.1767L20.0914 34.7973C19.9264 34.8801 19.7201 34.8801 19.5549 34.7973L18.5645 34.1767C18.1932 33.9285 17.6978 34.3008 17.8219 34.7147L18.1109 35.8733C18.152 36.0386 18.1109 36.2456 17.9459 36.3697L16.9964 37.1146C16.6662 37.4044 16.8314 37.9837 17.2853 37.9837L18.4407 38.0665C18.6471 38.0665 18.812 38.1906 18.8535 38.3563L19.3074 39.432C19.4723 39.8459 20.05 39.8459 20.2563 39.432L20.7103 38.3563C20.7929 38.1909 20.9578 38.0665 21.123 38.0665L22.2784 37.9837C22.7323 37.9424 22.8972 37.4044 22.5674 37.1146L21.7003 36.3697Z" fill="#B9B9FF"/>
<path d="M30.6956 33.4322L29.5403 33.2252C29.3753 33.1839 29.2101 33.0598 29.169 32.8529L28.7974 31.7357C28.6736 31.3218 28.0959 31.2392 27.8896 31.6528L27.3119 32.6872C27.2293 32.8526 27.0644 32.9354 26.858 32.9354L25.7026 32.8942C25.2487 32.8942 25.0012 33.4322 25.3313 33.7632L26.1154 34.6323C26.2392 34.7564 26.2803 34.9633 26.2392 35.1287L25.8679 36.2459C25.7029 36.6598 26.1569 37.0734 26.5693 36.8665L27.6421 36.37C27.807 36.2872 28.0134 36.3288 28.1786 36.4113L29.1276 37.1147C29.4989 37.4045 29.9942 37.1147 29.9528 36.6595L29.7052 35.501C29.6641 35.294 29.7464 35.1287 29.9116 35.0046L30.8606 34.3425C31.2322 34.094 31.1084 33.5147 30.6956 33.4322Z" fill="#B9B9FF"/>
<path d="M36.0188 28.4664C35.895 28.301 35.895 28.094 35.9776 27.9284L36.4727 26.8527C36.6791 26.4388 36.2663 26.0252 35.8538 26.1493L34.7397 26.5216C34.5747 26.6045 34.3684 26.5216 34.2446 26.3975L33.3779 25.6113C33.0478 25.3215 32.5112 25.5285 32.5112 25.9836L32.5524 27.1421C32.5524 27.3491 32.4698 27.5145 32.3049 27.5973L31.2733 28.1766C30.8605 28.3835 30.9431 28.9628 31.3559 29.0868L32.4701 29.4179C32.635 29.4592 32.8002 29.6248 32.8414 29.7902L33.0478 30.9487C33.1304 31.4039 33.708 31.528 33.9556 31.1557L34.6158 30.2041C34.7396 30.0387 34.9048 29.9559 35.1109 29.9972L36.2663 30.1625C36.7202 30.2038 37.0089 29.7074 36.7202 29.3351L36.0188 28.4664Z" fill="#B9B9FF"/>
<path d="M39.0724 19.6944L37.9996 19.2393C37.8347 19.1564 37.7106 18.9911 37.7106 18.8254L37.628 17.6668C37.5868 17.2117 37.0503 17.0463 36.7613 17.3771L36.0187 18.2874C35.895 18.4115 35.6886 18.4943 35.5237 18.4527L34.3683 18.163C33.9144 18.0388 33.5842 18.5353 33.8318 18.9076L34.4506 19.9007C34.5332 20.0661 34.5332 20.273 34.4506 20.4387L33.8318 21.4318C33.5842 21.8041 33.9555 22.3008 34.3683 22.1764L35.5237 21.8866C35.6886 21.8454 35.895 21.8866 36.0187 22.052L36.7613 22.9623C37.0503 23.2933 37.628 23.1277 37.628 22.6725L37.7106 21.514C37.7106 21.307 37.8344 21.1417 37.9996 21.1001L39.0724 20.6449C39.5263 20.4392 39.5263 19.8596 39.0724 19.6942V19.6944Z" fill="#B9B9FF"/>
<path d="M31.2733 12.0397L32.3048 12.619C32.4698 12.7018 32.5524 12.8672 32.5524 13.0742L32.5112 14.2327C32.5112 14.6878 33.0477 14.9361 33.3779 14.605L34.2446 13.8188C34.3683 13.6947 34.5747 13.6534 34.7396 13.6947L35.8538 14.067C36.2666 14.2324 36.679 13.7772 36.4726 13.3636L35.9776 12.2879C35.895 12.1225 35.9364 11.9156 36.0187 11.7499L36.7202 10.7984C37.0092 10.426 36.679 9.92931 36.2663 9.97091L35.1109 10.2194C34.9045 10.2607 34.7396 10.1781 34.6158 10.0125L33.9555 9.06089C33.708 8.68856 33.1304 8.81267 33.0478 9.26783L32.8414 10.4264C32.8002 10.6333 32.6765 10.7574 32.4701 10.7987L31.3559 11.1297C30.9431 11.2538 30.8605 11.8331 31.2733 12.0397Z" fill="#B9B9FF"/>
<path d="M25.7032 7.36486L26.8585 7.32359C27.0649 7.32359 27.2298 7.40642 27.3124 7.5718L27.8901 8.60621C28.0965 9.02009 28.6742 8.93726 28.7979 8.52338L29.128 7.40614C29.1692 7.24076 29.3344 7.07509 29.4994 7.03382L30.6547 6.82688C31.1086 6.74405 31.2324 6.16479 30.8611 5.9166L29.9121 5.25451C29.7472 5.1304 29.6646 4.96474 29.7057 4.75808L29.8707 3.59955C29.9118 3.14439 29.4168 2.85492 29.0455 3.14439L28.0965 3.84775C27.9316 3.97186 27.7252 3.97186 27.56 3.88902L26.4872 3.3926C26.0745 3.18565 25.662 3.59954 25.7858 4.01312L26.1571 5.13036C26.2397 5.29574 26.1571 5.50268 26.0333 5.62679L25.2492 6.49584C25.0017 6.86816 25.2495 7.40609 25.7032 7.36486Z" fill="#B9B9FF"/>
</svg>
