<svg width="20" height="20" viewBox="0 0 20 20" fill="none" xmlns="http://www.w3.org/2000/svg">
<path d="M10 0C4.47604 0 0 4.47604 0 10C0 15.524 4.47604 20 10 20C15.524 20 20 15.524 20 10C20 4.47604 15.524 0 10 0ZM15.12 7.2356L8.69231 13.6923H8.6875C8.60577 13.774 8.38462 13.9567 8.12979 13.9567C7.94709 13.9567 7.74036 13.8558 7.56728 13.6827L4.87497 10.9904C4.79805 10.9135 4.79805 10.7933 4.87497 10.7163L5.73075 9.86056C5.76921 9.8221 5.81729 9.80287 5.86537 9.80287C5.91344 9.80287 5.96152 9.8221 5.99998 9.86056L8.13458 11.9952L14.0001 6.08658C14.0385 6.04812 14.0866 6.02889 14.1347 6.02889C14.1876 6.02889 14.2356 6.04812 14.2693 6.08658L15.1107 6.95678C15.1972 7.03851 15.1972 7.15871 15.1203 7.23563L15.12 7.2356Z" fill="#4DB881"/>
</svg>
